<svg id="Layer_1" height="512" viewBox="0 0 512 512" width="512" xmlns="http://www.w3.org/2000/svg" data-name="Layer 1"><path d="m479.8 512a31.988 31.988 0 0 1 -22.769-9.432l-190.293-190.288a15.184 15.184 0 0 0 -21.475 0l-190.288 190.288a32.2 32.2 0 0 1 -45.543-45.542l190.288-190.289a15.183 15.183 0 0 0 0-21.474l-190.288-190.288a32.2 32.2 0 1 1 45.542-45.543l190.289 190.288a15.184 15.184 0 0 0 21.476 0l190.287-190.288a32.2 32.2 0 0 1 45.543 45.543l-190.289 190.288a15.185 15.185 0 0 0 0 21.474l190.289 190.288a32.2 32.2 0 0 1 -22.769 54.975z"/></svg>